# xmcd
#
# Track frame offsets:
#         150
#       21601
#       38150
#       61284
#       78007
#      104146
#      135312
#      158391
#      185576
#
# Disc length:   2739 seconds
#
# Revision: 0
# Processed by: cddbd v1.5.1PL2 Copyright (c) Steve Scherf et al.
# Submitted via: Max 0.4.1
#
DISCID=6d0ab109
DTITLE=Rory Gallagher - The Best Years
DYEAR=1977
DGENRE=Blues
TTITLE0=Rory Gallagher - Tattoo'd Lady
TTITLE1=Rory Gallagher - Banker's Blues
TTITLE2=Rory Gallagher - Used To Be
TTITLE3=Rory Gallagher - Just The Smile
TTITLE4=Rory Gallagher - Going To My Home Town
TTITLE5=Rory Gallagher - Race The Breeze
TTITLE6=Rory Gallagher - Sinner Boy
TTITLE7=Rory Gallagher - Crest Of A Wave
TTITLE8=Rory Gallagher - Admit It
EXTD=
EXTT0=
EXTT1=
EXTT2=
EXTT3=
EXTT4=
EXTT5=
EXTT6=
EXTT7=
EXTT8=
PLAYORDER=
